<svg width="24" height="25" viewBox="0 0 24 25" fill="none" xmlns="http://www.w3.org/2000/svg">
<path d="M7.16669 19.75C5.88335 19.75 4.84502 20.8375 4.84502 22.1667C4.84502 23.4958 5.88335 24.5833 7.16669 24.5833C8.45002 24.5833 9.50002 23.4958 9.50002 22.1667C9.50002 20.8375 8.45002 19.75 7.16669 19.75ZM0.166687 0.416672V2.83334H2.50002L6.70002 12.0046L5.12502 14.965C4.93835 15.3033 4.83335 15.7021 4.83335 16.125C4.83335 17.4542 5.88335 18.5417 7.16669 18.5417H21.1667V16.125H7.65669C7.49335 16.125 7.36502 15.9921 7.36502 15.8229L7.40002 15.6779L8.45002 13.7083H17.1417C18.0167 13.7083 18.7867 13.2129 19.1834 12.4638L23.36 4.62167C23.4534 4.45251 23.5 4.24709 23.5 4.04167C23.5 3.37709 22.975 2.83334 22.3334 2.83334H5.07835L3.98169 0.416672H0.166687ZM18.8334 19.75C17.55 19.75 16.5117 20.8375 16.5117 22.1667C16.5117 23.4958 17.55 24.5833 18.8334 24.5833C20.1167 24.5833 21.1667 23.4958 21.1667 22.1667C21.1667 20.8375 20.1167 19.75 18.8334 19.75Z" fill="#212121"/>
</svg>
