<svg width="25" height="25" viewBox="0 0 25 25" fill="none" xmlns="http://www.w3.org/2000/svg">
<path fill-rule="evenodd" clip-rule="evenodd" d="M12.5 0.585938C15.7354 0.585938 16.142 0.599054 17.4121 0.658077C18.4005 0.676989 19.3785 0.864016 20.3042 1.21115C21.0953 1.51785 21.8138 1.98614 22.4138 2.58612C23.0138 3.18609 23.4821 3.90458 23.7888 4.69571C24.1352 5.61932 24.3222 6.59505 24.3418 7.58129C24.4009 8.85138 24.414 9.25798 24.414 12.4933C24.414 15.7287 24.4009 16.1353 24.3418 17.4054C24.3229 18.3938 24.1359 19.3718 23.7888 20.2975C23.4821 21.0886 23.0138 21.8071 22.4138 22.4071C21.8138 23.0071 21.0953 23.4754 20.3042 23.7821C19.381 24.1307 18.4052 24.32 17.4186 24.3417C16.1485 24.4007 15.7419 24.4138 12.5066 24.4138C9.27122 24.4138 8.86462 24.4007 7.59452 24.3417C6.60608 24.3228 5.62806 24.1358 4.70238 23.7886C3.91126 23.4819 3.19277 23.0136 2.5928 22.4137C1.99282 21.8137 1.52453 21.0952 1.21783 20.3041C0.86919 19.3809 0.679948 18.4051 0.658196 17.4185C0.599173 16.1484 0.58606 15.7418 0.58606 12.5064C0.58606 9.2711 0.599173 8.8645 0.658196 7.5944C0.677108 6.60596 0.864135 5.62794 1.21127 4.70226C1.5172 3.90993 1.98515 3.19016 2.58517 2.58902C3.18519 1.98787 3.90406 1.51858 4.69582 1.21115C5.61943 0.864746 6.59517 0.67773 7.58141 0.658077C8.85806 0.599054 9.26466 0.585938 12.5 0.585938ZM17.3093 2.80259C16.0545 2.74575 15.6763 2.73264 12.5 2.73264C9.32369 2.73264 8.94113 2.74575 7.69071 2.80259C6.93401 2.81034 6.18424 2.94787 5.47406 3.20919C4.95935 3.40763 4.49192 3.71167 4.10186 4.10174C3.7118 4.4918 3.40775 4.95923 3.20932 5.47394C2.94773 6.18261 2.80947 6.93086 2.80053 7.68622C2.74369 8.94101 2.73057 9.31919 2.73057 12.4955C2.73057 15.6718 2.74369 16.0544 2.80053 17.3048C2.80847 18.0631 2.94675 18.8144 3.20932 19.5258C3.40775 20.0405 3.7118 20.508 4.10186 20.898C4.49192 21.2881 4.95935 21.5921 5.47406 21.7906C6.18273 22.0522 6.93098 22.1904 7.68634 22.1994C8.94113 22.2562 9.31932 22.2693 12.4956 22.2693C15.672 22.2693 16.0545 22.2562 17.3049 22.1994C18.0632 22.1914 18.8145 22.0532 19.526 21.7906C20.0407 21.5921 20.5081 21.2881 20.8982 20.898C21.2882 20.508 21.5923 20.0405 21.7907 19.5258C22.0523 18.8172 22.1906 18.0689 22.1995 17.3136C22.2563 16.0588 22.2695 15.6806 22.2695 12.5043C22.2695 9.32794 22.2563 8.94538 22.1995 7.69496C22.1916 6.93666 22.0533 6.18537 21.7907 5.47394C21.5923 4.95923 21.2882 4.4918 20.8982 4.10174C20.5081 3.71167 20.0407 3.40763 19.526 3.20919C18.8172 2.94836 18.0689 2.81083 17.3137 2.80259H17.3093ZM12.5 16.4719C13.2856 16.4719 14.0536 16.239 14.7068 15.8025C15.36 15.3661 15.8691 14.7457 16.1697 14.0199C16.4703 13.2941 16.549 12.4955 16.3957 11.725C16.2425 10.9545 15.8642 10.2467 15.3087 9.69123C14.7532 9.13573 14.0454 8.75743 13.2749 8.60417C12.5044 8.4509 11.7058 8.52956 10.98 8.8302C10.2542 9.13083 9.63383 9.63994 9.19738 10.2931C8.76093 10.9463 8.52796 11.7143 8.52796 12.4999C8.52854 13.5532 8.94721 14.5631 9.69199 15.3079C10.4368 16.0527 11.4467 16.4714 12.5 16.4719ZM12.5 6.38115C13.7106 6.38115 14.894 6.74013 15.9006 7.41271C16.9072 8.08529 17.6917 9.04124 18.155 10.1597C18.6183 11.2782 18.7395 12.5089 18.5033 13.6962C18.2672 14.8836 17.6842 15.9742 16.8282 16.8302C15.9721 17.6863 14.8815 18.2692 13.6941 18.5054C12.5068 18.7416 11.2761 18.6204 10.1576 18.1571C9.03918 17.6938 8.08322 16.9093 7.41064 15.9027C6.73807 14.8961 6.37908 13.7127 6.37908 12.5021C6.37908 10.8787 7.02397 9.32182 8.17186 8.17393C9.31976 7.02603 10.8766 6.38115 12.5 6.38115ZM20.2889 6.14068C20.2889 6.42345 20.205 6.69986 20.048 6.93497C19.8909 7.17007 19.6676 7.35332 19.4063 7.46153C19.1451 7.56974 18.8576 7.59805 18.5803 7.54288C18.303 7.48772 18.0482 7.35156 17.8483 7.15161C17.6483 6.95167 17.5122 6.69693 17.457 6.4196C17.4019 6.14227 17.4302 5.85481 17.5384 5.59357C17.6466 5.33233 17.8298 5.10905 18.0649 4.95195C18.3 4.79486 18.5765 4.71101 18.8592 4.71101C19.2384 4.71101 19.602 4.86163 19.8702 5.12975C20.1383 5.39787 20.2889 5.76151 20.2889 6.14068Z" fill="white"/>
</svg>
