<svg width="25" height="25" viewBox="0 0 25 25" fill="none" xmlns="http://www.w3.org/2000/svg">
<path d="M12.5 0.416672C5.83002 0.416672 0.416687 5.83001 0.416687 12.5C0.416687 19.17 5.83002 24.5833 12.5 24.5833C19.17 24.5833 24.5834 19.17 24.5834 12.5C24.5834 5.83001 19.17 0.416672 12.5 0.416672ZM12.5 4.04167C14.5059 4.04167 16.125 5.66084 16.125 7.66667C16.125 9.67251 14.5059 11.2917 12.5 11.2917C10.4942 11.2917 8.87502 9.67251 8.87502 7.66667C8.87502 5.66084 10.4942 4.04167 12.5 4.04167ZM12.5 21.2C9.47919 21.2 6.80877 19.6533 5.25002 17.3092C5.28627 14.9046 10.0834 13.5875 12.5 13.5875C14.9046 13.5875 19.7138 14.9046 19.75 17.3092C18.1913 19.6533 15.5209 21.2 12.5 21.2Z" fill="#212121"/>
</svg>
