<svg width="25" height="20" viewBox="0 0 25 20" fill="none" xmlns="http://www.w3.org/2000/svg">
<path d="M8.45583 19.7963C17.4755 19.7963 22.4072 12.3244 22.4072 5.84492C22.4072 5.62632 22.4072 5.42301 22.3919 5.21315C23.3511 4.51869 24.1794 3.65934 24.8381 2.67515C23.9431 3.07099 22.9941 3.33107 22.0224 3.44682C23.0457 2.8333 23.8115 1.86936 24.1779 0.733942C23.2154 1.30449 22.1627 1.70666 21.0649 1.92315C20.3256 1.13723 19.3478 0.616871 18.283 0.442607C17.2181 0.268342 16.1255 0.449873 15.1742 0.959125C14.2229 1.46838 13.4659 2.27696 13.0205 3.25974C12.575 4.24253 12.4658 5.34472 12.7099 6.3958C10.7607 6.29839 8.85381 5.79203 7.11309 4.90962C5.37236 4.02721 3.83674 2.78847 2.60597 1.27389C1.97863 2.35308 1.78632 3.63084 2.0682 4.84688C2.35007 6.06293 3.08493 7.12577 4.12308 7.81891C3.3428 7.79529 2.57961 7.58462 1.89769 7.20464V7.26585C1.89751 8.39852 2.28929 9.49634 3.00654 10.373C3.72379 11.2496 4.7223 11.851 5.83257 12.0752C5.11124 12.2719 4.35435 12.3003 3.6203 12.1582C3.93359 13.1345 4.54489 13.988 5.36831 14.5989C6.19172 15.2098 7.18585 15.5473 8.21099 15.5641C7.19523 16.3642 6.03126 16.9556 4.78606 17.3041C3.54087 17.6526 2.23904 17.7515 0.955505 17.5949C3.19293 19.0319 5.79668 19.7946 8.45583 19.7919" fill="white"/>
</svg>
