<svg width="24" height="25" viewBox="0 0 24 25" fill="none" xmlns="http://www.w3.org/2000/svg">
<path d="M20.7443 2.60946C20.1559 2.05201 17.7703 0.283501 12.4579 0.259455C12.4579 0.259455 6.19332 -0.127472 3.1402 2.73625C1.42858 4.47197 0.842345 7.01434 0.786718 10.1688C0.73109 13.3233 0.641229 19.2256 6.21472 20.828V23.272C6.21472 23.272 6.17834 24.2601 6.81593 24.4634C7.58616 24.706 8.03974 23.954 8.77574 23.1517C9.18011 22.7145 9.73853 22.0587 10.1579 21.5537C13.9705 21.8816 16.8996 21.1318 17.2333 21.0203C18.0036 20.7668 22.3575 20.1962 23.0657 14.2895C23.7889 8.19481 22.7041 4.34518 20.7443 2.60946ZM21.3862 13.8457C20.7892 18.7753 17.2569 19.0923 16.6064 19.2999C14.6156 19.796 12.5616 19.9744 10.5173 19.829C10.5173 19.829 8.11035 22.802 7.35723 23.5758C7.3149 23.627 7.26103 23.6668 7.20028 23.6919C7.13953 23.7171 7.07371 23.7267 7.00848 23.7201C6.88011 23.6873 6.84374 23.5321 6.84588 23.3026C6.84588 22.9747 6.86514 19.2409 6.86514 19.2409C2.15816 17.903 2.42774 12.8773 2.48123 10.2453C2.53472 7.61332 3.01825 5.45569 4.45602 4.00634C7.03844 1.61481 12.3595 1.97332 12.3595 1.97332C16.8525 1.993 19.007 3.37458 19.5055 3.83802C21.1636 5.28955 22.0088 8.75881 21.3904 13.8436L21.3862 13.8457Z" fill="white"/>
<path d="M14.6445 10.3349C14.5676 10.335 14.4936 10.3049 14.4378 10.2508C14.382 10.1966 14.3488 10.1227 14.3449 10.0442C14.2936 9.00143 13.8143 8.48989 12.8344 8.43742C12.755 8.43337 12.6804 8.39723 12.627 8.33697C12.5736 8.2767 12.5459 8.19724 12.5499 8.11607C12.5538 8.03491 12.5892 7.95868 12.6482 7.90416C12.7072 7.84963 12.7849 7.82128 12.8644 7.82533C14.1481 7.89529 14.8777 8.65166 14.944 10.0114C14.9475 10.0924 14.9196 10.1716 14.8663 10.2318C14.8131 10.2919 14.7387 10.3282 14.6595 10.3327L14.6445 10.3349Z" fill="white"/>
<path d="M16.1849 10.8639C16.1053 10.8617 16.0298 10.8273 15.9749 10.7683C15.9199 10.7093 15.8901 10.6305 15.8918 10.5491C15.9188 10.0771 15.8535 9.60431 15.6996 9.15839C15.5456 8.71247 15.3062 8.30239 14.9953 7.95213C14.3706 7.25478 13.5148 6.87659 12.3787 6.79134C12.3394 6.78847 12.301 6.77771 12.2657 6.75967C12.2304 6.74164 12.199 6.71669 12.1732 6.68624C12.1473 6.6558 12.1276 6.62044 12.1152 6.58221C12.1027 6.54398 12.0977 6.50362 12.1006 6.46343C12.1034 6.42324 12.1139 6.38401 12.1315 6.34798C12.1492 6.31194 12.1736 6.27981 12.2034 6.25342C12.2332 6.22704 12.2678 6.2069 12.3052 6.19418C12.3426 6.18145 12.3822 6.17638 12.4215 6.17925C13.7052 6.27325 14.7151 6.73232 15.4382 7.53897C15.8003 7.9471 16.0798 8.42428 16.2608 8.94311C16.4418 9.46193 16.5207 10.0122 16.493 10.5623C16.4922 10.6027 16.4836 10.6427 16.4676 10.6797C16.4517 10.7168 16.4288 10.7503 16.4001 10.7783C16.3715 10.8063 16.3378 10.8283 16.3009 10.843C16.2639 10.8577 16.2245 10.8648 16.1849 10.8639V10.8639Z" fill="white"/>
<path d="M17.7639 11.4936C17.6849 11.4936 17.609 11.4616 17.5529 11.4047C17.4968 11.3478 17.465 11.2705 17.4644 11.1897C17.4494 9.33813 16.906 7.86474 15.8469 6.81762C15.3196 6.29347 14.6959 5.88138 14.0117 5.60521C13.3275 5.32904 12.5965 5.19427 11.8609 5.2087C11.7856 5.2022 11.7154 5.16702 11.6642 5.11014C11.6131 5.05326 11.5847 4.97882 11.5847 4.90156C11.5847 4.8243 11.6131 4.74985 11.6642 4.69297C11.7154 4.63609 11.7856 4.60092 11.8609 4.59442V4.59442C12.6732 4.57688 13.4808 4.72416 14.237 5.02773C14.9932 5.3313 15.6829 5.78513 16.2663 6.36293C17.4451 7.53684 18.0485 9.1567 18.0635 11.1722C18.064 11.2125 18.0568 11.2525 18.0421 11.2899C18.0274 11.3272 18.0056 11.3612 17.9779 11.3899C17.9502 11.4186 17.9172 11.4414 17.8809 11.4569C17.8445 11.4725 17.8055 11.4805 17.7661 11.4805L17.7639 11.4936Z" fill="white"/>
<path d="M12.9093 14.1408C13.0277 14.1484 13.1463 14.1299 13.257 14.0866C13.3678 14.0432 13.4681 13.9759 13.5512 13.8894L13.9962 13.321C14.149 13.1482 14.3565 13.0359 14.5823 13.0039C14.8081 12.972 15.0376 13.0223 15.2307 13.1461C15.6099 13.3655 15.9776 13.6049 16.3326 13.8632C16.6663 14.1167 17.3531 14.7004 17.3553 14.7004C17.5147 14.8351 17.6209 15.0243 17.6543 15.2329C17.6878 15.4414 17.6461 15.6553 17.5371 15.835V15.835C17.2911 16.2694 16.9791 16.6613 16.6128 16.9958V16.9958C16.351 17.2397 16.0254 17.4007 15.6757 17.4592C15.6302 17.4646 15.5843 17.4646 15.5388 17.4592C15.4037 17.46 15.2693 17.4386 15.1408 17.3958V17.3805C14.668 17.245 13.8785 16.9039 12.5734 16.1629C11.8085 15.7487 11.0798 15.2682 10.3953 14.7266C10.0542 14.4551 9.72917 14.1631 9.42186 13.8522L9.38763 13.8194L9.35554 13.7845L9.32344 13.7517L9.28921 13.7189C8.98606 13.4038 8.70035 13.0718 8.4334 12.7242C7.89245 12.0313 7.41004 11.2926 6.99135 10.5163C6.26605 9.17409 5.92158 8.36962 5.79963 7.89307H5.78465C5.74342 7.7617 5.72319 7.62441 5.72474 7.48646C5.71936 7.43999 5.71936 7.39303 5.72474 7.34655C5.78084 6.97981 5.94074 6.63785 6.18474 6.36283C6.18474 6.36283 6.18474 6.36283 6.18474 6.36283C6.51203 5.98848 6.89552 5.6697 7.32084 5.41846V5.41846C7.49621 5.30744 7.70493 5.26489 7.90857 5.29863C8.11221 5.33237 8.29707 5.44014 8.42912 5.60209C8.42912 5.60209 9.00251 6.30599 9.24856 6.64702C9.49461 6.98804 9.75349 7.37497 9.96744 7.7619C10.0878 7.95941 10.1366 8.19378 10.1053 8.42423C10.074 8.65469 9.96469 8.86666 9.79628 9.02325L9.23786 9.47576C9.15354 9.5608 9.08812 9.66338 9.04604 9.77654C9.00395 9.8897 8.98619 10.0108 8.99395 10.1316C8.99395 10.1316 9.82195 13.3341 12.9093 14.1408Z" fill="white"/>
</svg>
