<svg width="24" height="25" viewBox="0 0 24 25" fill="none" xmlns="http://www.w3.org/2000/svg">
<path d="M0.00360107 24.1953L1.65408 18.1706C0.377207 15.9534 -0.132578 13.377 0.203753 10.8406C0.540084 8.30427 1.70373 5.94971 3.51432 4.14196C5.32492 2.33422 7.6813 1.17426 10.2182 0.841918C12.7551 0.509575 15.3307 1.02341 17.5459 2.30376C19.761 3.58412 21.4919 5.55947 22.4702 7.9236C23.4485 10.2877 23.6196 12.9086 22.957 15.3798C22.2943 17.851 20.8349 20.0347 18.805 21.5921C16.7751 23.1496 14.2881 23.9939 11.7296 23.9942C9.78876 23.9931 7.87913 23.5061 6.17482 22.5777L0.00360107 24.1953ZM6.45244 20.4791L6.80659 20.6977C8.29578 21.5796 9.99446 22.0454 11.7252 22.0464C13.8684 22.0469 15.951 21.335 17.6456 20.0228C19.3402 18.7106 20.5506 16.8724 21.0866 14.7973C21.6226 12.7222 21.4538 10.5278 20.6067 8.55903C19.7596 6.5903 18.2822 4.95892 16.4069 3.92135C14.5315 2.88377 12.3646 2.49885 10.2466 2.8271C8.12866 3.15534 6.17985 4.17814 4.70655 5.73469C3.23325 7.29124 2.31901 9.29328 2.10756 11.4261C1.89612 13.5588 2.39946 15.7014 3.53845 17.517L3.75705 17.882L2.77988 21.4475L6.45244 20.4791Z" fill="white"/>
<path fill-rule="evenodd" clip-rule="evenodd" d="M17.586 15.1321C17.5138 15.0096 17.3193 14.9375 17.0285 14.7932C16.7378 14.6489 15.3103 13.945 15.0436 13.8467C14.7769 13.7483 14.5845 13.7024 14.3878 13.9931C14.191 14.2839 13.638 14.9375 13.4697 15.1321C13.3013 15.3266 13.1286 15.3507 12.8401 15.2042C11.988 14.862 11.2017 14.3746 10.5163 13.7636C9.88116 13.1761 9.33673 12.4976 8.90081 11.7502C8.73029 11.4595 8.88114 11.313 9.0276 11.1578C9.17407 11.0026 9.31835 10.8168 9.46481 10.6485C9.58501 10.5018 9.68298 10.3383 9.75556 10.1632C9.79382 10.0829 9.81164 9.99434 9.80745 9.90548C9.80325 9.81662 9.77716 9.73018 9.7315 9.65383C9.65936 9.50955 9.07569 8.07987 8.83523 7.49838C8.59476 6.91689 8.36086 7.00871 8.17941 6.99778C7.99797 6.98685 7.81653 6.99778 7.62416 6.99778C7.47476 7.00025 7.32752 7.03401 7.19197 7.09689C7.05642 7.15977 6.93555 7.25037 6.83718 7.36285C6.51117 7.67197 6.25258 8.04514 6.07765 8.45895C5.90272 8.87276 5.81524 9.31827 5.82067 9.7675C5.82067 11.1972 6.86123 12.5788 7.0077 12.7733C7.15416 12.9679 9.05602 15.9015 11.97 17.1585C12.5111 17.392 13.0642 17.5963 13.627 17.7706C14.2197 17.9506 14.8461 17.9903 15.4568 17.8865C16.0142 17.8034 17.175 17.1826 17.4242 16.5049C17.6734 15.8272 17.6581 15.2523 17.586 15.1321Z" fill="white"/>
</svg>
